# xmcd
#
# Track frame offsets: 
#        150
#        21203
#        49343
#        67583
#        85988
#        105571
#        129249
#        161709
#        192902
#        212545
#
# Disc length: 3063 seconds
#
# Revision: 0
# Processed by: cddbd v1.5.2PL0 Copyright (c) Steve Scherf et al.
# Submitted via: ExactAudioCopyFreeDBPlugin 1.0
#
DISCID=7d0bf50a
DTITLE=Rory Gallagher - Tattoo
DYEAR=2012
DGENRE=Blues
TTITLE0=Tattoo'd Lady
TTITLE1=Cradle Rock
TTITLE2=20-20 Vision
TTITLE3=They Don't Make Tham Like You Anymore
TTITLE4=Livin' Like A Trucker
TTITLE5=Sleep On A Clothes-Line
TTITLE6=Who's That Coming
TTITLE7=A Million Miles Away
TTITLE8=Admit It
TTITLE9=Tuscon, Arizona [Bonus]
EXTD=
EXTT0=
EXTT1=
EXTT2=
EXTT3=
EXTT4=
EXTT5=
EXTT6=
EXTT7=
EXTT8=
EXTT9=
PLAYORDER=
